HIERARCHY
ROOT Hips
{
	OFFSET 0.000000 0.000000 0.000000
	CHANNELS 6 Xposition Yposition Zposition Zrotation Yrotation Xrotation 
	JOINT LHipJoint
	{
		OFFSET 0.000000 0.000000 0.000000
		CHANNELS 3 Zrotation Yrotation Xrotation
		JOINT LeftUpLeg
		{
			OFFSET 1.363060 -1.794630 0.839290
			CHANNELS 3 Zrotation Yrotation Xrotation
			JOINT LeftLeg
			{
				OFFSET 2.448110 -6.726130 0.000000
				CHANNELS 3 Zrotation Yrotation Xrotation
				JOINT LeftFoot
				{
					OFFSET 2.562200 -7.039590 0.000000
					CHANNELS 3 Zrotation Yrotation Xrotation
					JOINT LeftToeBase
					{
						OFFSET 0.157640 -0.433110 2.322550
						CHANNELS 3 Zrotation Yrotation Xrotation
						End Site
						{
							OFFSET 0.000000 0.000000 0.000000
						}
					}
				}
			}
		}
	}
	JOINT RHipJoint
	{
		OFFSET 0.000000 0.000000 0.000000
		CHANNELS 3 Zrotation Yrotation Xrotation
		JOINT RightUpLeg
		{
			OFFSET -1.305520 -1.794630 0.839290
			CHANNELS 3 Zrotation Yrotation Xrotation
			JOINT RightLeg
			{
				OFFSET -2.542530 -6.985550 0.000000
				CHANNELS 3 Zrotation Yrotation Xrotation
				JOINT RightFoot
				{
					OFFSET -2.568260 -7.056230 0.000000
					CHANNELS 3 Zrotation Yrotation Xrotation
					JOINT RightToeBase
					{
						OFFSET -0.164730 -0.452590 2.363150
						CHANNELS 3 Zrotation Yrotation Xrotation
						End Site
						{
							OFFSET 0.000000 0.000000 0.000000
						}
					}
				}
			}
		}
	}
}
MOTION
Frames: 16
Frame Time: 0.008333
-20.152475 16.186884 -0.242428 3.186932 87.297059 18.736128 -9.701156 -0.499326 3.819114 -10.429097 -0.466659 -56.084270 -1.409800 1.916919 39.791036 1.192577 4.993140 -5.161892 0.519600 0.000000 -18.864100 9.729453 -5.445570 0.941054 5.622196 -5.422138 6.912894 1.495685 -1.741193 21.348534 0.406820 5.404287 7.859376 1.163800 0.000000 -84.747900
-19.988084 16.161812 -0.266217 7.167143 87.642529 22.362218 -9.642464 -0.615736 3.555789 -10.828192 -0.341589 -55.670592 -1.336225 1.967372 41.537643 1.164224 4.745988 -6.067104 0.377400 -0.000000 -18.248100 10.039422 -5.587652 0.787393 4.884789 -6.151055 5.886946 1.269005 -2.069653 24.457003 0.352067 5.961816 9.726865 1.540200 -0.000001 -86.416800
-19.826637 16.133044 -0.290913 11.319818 87.953374 26.151102 -9.545050 -0.711275 3.280697 -11.254812 -0.173359 -55.214228 -1.276955 2.004696 43.239413 1.137754 4.474459 -7.105389 0.229400 0.000000 -17.736300 10.400927 -5.695146 0.639176 4.126778 -6.854439 4.721372 1.023379 -2.382147 27.813400 0.259786 6.421537 11.627654 1.937500 0.000000 -87.136401
-19.668375 16.100319 -0.316087 15.498698 88.202483 29.965924 -9.411250 -0.772704 3.000279 -11.720965 0.053238 -54.746141 -1.232668 2.035996 44.890174 1.117610 4.203462 -8.241092 0.082501 0.000000 -17.367800 10.802490 -5.755876 0.503390 3.364074 -7.494988 3.416081 0.761706 -2.671232 31.400431 0.128737 6.684538 13.482304 2.303099 -0.000000 -86.783800
-19.513292 16.063626 -0.341684 19.353430 88.356879 33.466460 -9.260569 -0.791614 2.722988 -12.222078 0.352575 -54.300482 -1.203131 2.071793 46.488923 1.107012 3.952724 -9.441833 -0.059300 -0.000000 -17.168500 11.210243 -5.759510 0.383734 2.629955 -8.028991 1.982408 0.488422 -2.932580 35.188608 -0.037252 6.640861 15.187925 2.563300 0.000000 -85.315499
-19.361442 16.023171 -0.367152 22.919012 88.428120 36.695479 -9.097614 -0.772006 2.453519 -12.765109 0.708658 -53.889679 -1.185062 2.112927 48.031112 1.108499 3.744474 -10.674617 -0.194200 0.000000 -17.142300 11.616039 -5.710581 0.280036 1.931892 -8.457686 0.422717 0.211474 -3.171160 39.146689 -0.231267 6.216611 16.634466 2.649500 0.000000 -82.793500
-19.212927 15.979417 -0.392517 26.079949 88.424956 39.542174 -8.937125 -0.720715 2.196639 -13.334081 1.107439 -53.524253 -1.174859 2.162227 49.518835 1.122690 3.589348 -11.915972 -0.323400 0.000000 -17.272900 11.999238 -5.614876 0.188809 1.296194 -8.778417 -1.247252 -0.063885 -3.394177 43.232620 -0.445024 5.353964 17.712176 2.502500 -0.000000 -79.405800
-19.067940 15.933078 -0.417402 28.994381 88.372517 42.168082 -8.776456 -0.644416 1.954785 -13.922539 1.516889 -53.198847 -1.168794 2.217113 50.947690 1.150174 3.498203 -13.146228 -0.449500 -0.000000 -17.520600 12.363861 -5.480843 0.104500 0.725275 -9.013046 -3.018149 -0.335680 -3.611508 47.406150 -0.670820 4.051344 18.327695 2.103300 -0.000000 -75.412800
-18.926207 15.885049 -0.441720 31.757476 88.291635 44.668509 -8.615959 -0.548360 1.731125 -14.514699 1.906534 -52.903353 -1.163888 2.275844 52.314251 1.190570 3.474308 -14.353354 -0.576100 0.000000 -17.833900 12.710835 -5.315520 0.021902 0.226234 -9.179135 -4.873895 -0.606011 -3.831100 51.623160 -0.902284 2.350105 18.414918 1.475500 -0.000000 -71.096600
-18.787842 15.836269 -0.465674 34.426331 88.202116 47.096332 -8.458699 -0.437711 1.529045 -15.088941 2.248636 -52.622880 -1.157863 2.336836 53.615925 1.242531 3.513718 -15.531759 -0.706400 -0.000000 -18.157600 13.038984 -5.125581 -0.063272 -0.191722 -9.291673 -6.794795 -0.879016 -4.058215 55.839369 -1.134062 0.335543 17.938805 0.686900 0.000000 -66.689400
-18.652946 15.787873 -0.489135 37.153552 88.115180 49.602945 -8.299204 -0.312695 1.351456 -15.638368 2.513083 -52.338244 -1.150159 2.397800 54.841636 1.305251 3.614087 -16.675818 -0.843500 0.000000 -18.439900 13.357179 -4.913375 -0.153752 -0.538715 -9.367329 -8.768825 -1.159772 -4.294813 60.014741 -1.360882 -1.864799 16.897977 -0.159700 0.000000 -62.329400
-18.521296 15.740891 -0.512400 39.977230 88.036982 52.223863 -8.141276 -0.176065 1.199236 -16.148458 2.681677 -52.033431 -1.140995 2.458681 55.984343 1.376870 3.766375 -17.784169 -0.989000 0.000000 -18.644100 13.662970 -4.680227 -0.253060 -0.815011 -9.414745 -10.779665 -1.451767 -4.539783 64.108163 -1.577070 -4.112204 15.322728 -0.953200 -0.000000 -58.062300
-18.392817 15.696364 -0.535558 42.963001 87.966139 55.022797 -7.985118 -0.027599 1.073196 -16.617062 2.741559 -51.691035 -1.131610 2.518955 57.031464 1.455912 3.963207 -18.853685 -1.143800 0.000000 -18.748200 13.957541 -4.426022 -0.361378 -1.032404 -9.440052 -12.815509 -1.756283 -4.789383 68.079418 -1.776136 -6.265357 13.272967 -1.591700 -0.000000 -53.861100
-18.267314 15.655281 -0.558846 46.123705 87.897464 58.009902 -7.834621 0.131402 0.972271 -17.042923 2.690920 -51.297286 -1.123559 2.578836 57.971964 1.540540 4.195777 -19.880645 -1.307800 0.000000 -18.746799 14.237046 -4.150902 -0.478110 -1.199962 -9.444642 -14.863875 -2.071255 -5.038351 71.887383 -1.950787 -8.199892 10.831286 -2.002900 -0.000000 -49.655200
-18.144876 15.618445 -0.582496 49.434837 87.824799 61.158530 -7.695499 0.298059 0.893413 -17.426786 2.538172 -50.841742 -1.118490 2.638565 58.796383 1.628820 4.455246 -20.861233 -1.479701 0.000000 -18.650400 14.494941 -3.856161 -0.601755 -1.325202 -9.426534 -16.912291 -2.391190 -5.280985 75.491273 -2.093385 -9.817514 8.095050 -2.154100 -0.000001 -45.364400
-18.025048 15.586599 -0.606709 52.850171 87.739770 64.421703 -7.573531 0.468428 0.831560 -17.773432 2.298981 -50.317619 -1.118144 2.698217 59.495299 1.718948 4.734230 -21.790342 -1.657800 -0.000000 -18.479700 14.723866 -3.543480 -0.730454 -1.416553 -9.381577 -18.950352 -2.707675 -5.511946 78.851011 -2.196552 -11.048871 5.168936 -2.053500 -0.000001 -40.901799
